<svg width="18" height="19" viewBox="0 0 18 19" fill="none" xmlns="http://www.w3.org/2000/svg">
<path d="M8.54437 12.8753H9.55688V8.82534H8.54437V12.8753ZM8.9997 7.57659C9.1574 7.57659 9.28969 7.52484 9.39656 7.42134C9.50344 7.31784 9.55688 7.18959 9.55688 7.03659C9.55688 6.87402 9.50354 6.73776 9.39687 6.62779C9.29018 6.51782 9.158 6.46284 9.0003 6.46284C8.8426 6.46284 8.71031 6.51782 8.60344 6.62779C8.49656 6.73776 8.44313 6.87402 8.44313 7.03659C8.44313 7.18959 8.49646 7.31784 8.60313 7.42134C8.70982 7.52484 8.84201 7.57659 8.9997 7.57659ZM9.00449 16.2503C8.07373 16.2503 7.19904 16.0731 6.38043 15.7188C5.56181 15.3644 4.84594 14.8806 4.23281 14.2675C3.61969 13.6544 3.13594 12.9381 2.78156 12.1186C2.42719 11.2992 2.25 10.4236 2.25 9.4919C2.25 8.56018 2.42719 7.6846 2.78156 6.86515C3.13594 6.04569 3.61969 5.33221 4.23281 4.72471C4.84594 4.11721 5.56223 3.63627 6.38169 3.2819C7.20114 2.92752 8.07672 2.75034 9.00844 2.75034C9.94015 2.75034 10.8157 2.92752 11.6352 3.2819C12.4546 3.63627 13.1681 4.11721 13.7756 4.72471C14.3831 5.33221 14.8641 6.04659 15.2184 6.86784C15.5728 7.68909 15.75 8.56509 15.75 9.49585C15.75 10.4266 15.5728 11.3013 15.2184 12.1199C14.8641 12.9385 14.3831 13.6534 13.7756 14.2644C13.1681 14.8755 12.4538 15.3592 11.6325 15.7157C10.8113 16.0721 9.93525 16.2503 9.00449 16.2503ZM9.00844 15.2378C10.6003 15.2378 11.9531 14.6781 13.0669 13.5588C14.1806 12.4394 14.7375 11.0838 14.7375 9.4919C14.7375 7.90002 14.1817 6.54721 13.07 5.43346C11.9584 4.31971 10.6017 3.76284 9 3.76284C7.41375 3.76284 6.06094 4.31865 4.94156 5.43029C3.82219 6.54193 3.2625 7.89862 3.2625 9.50034C3.2625 11.0866 3.82219 12.4394 4.94156 13.5588C6.06094 14.6781 7.41656 15.2378 9.00844 15.2378Z" fill="#929EB5"/>
</svg>
