<svg width="17" height="17" viewBox="0 0 17 17" fill="none" xmlns="http://www.w3.org/2000/svg">
<path d="M9.04383 2.44664C9.57863 1.91184 10.4667 1.87887 11.0473 2.44664L14.5534 5.95271C15.1066 6.50595 15.1066 7.40294 14.5534 7.95618C14.0186 8.49098 13.1305 8.53025 12.5499 7.95618L12.2995 7.70562L10.2088 9.79626C10.8395 11.5032 10.4173 13.6097 9.04383 14.9683C8.89556 15.115 8.66737 15.0959 8.54296 14.9683L5.53762 11.9629L3.28385 14.217C3.14554 14.3553 2.92129 14.3553 2.78298 14.217C2.65531 14.0893 2.63288 13.8675 2.78298 13.7162L5.03682 11.4621L2.03168 8.45705C1.90401 8.32938 1.87944 8.10842 2.03168 7.95618C3.37173 6.61613 5.40714 6.13651 7.20339 6.79081L9.29403 4.70016L9.04383 4.45011C8.47296 3.8763 8.50902 2.98144 9.04383 2.44664Z" fill="#12BCCA"/>
</svg>
