<svg width="20" height="20" viewBox="0 0 20 20" fill="none" xmlns="http://www.w3.org/2000/svg">
<path d="M2.38858 8.58856C2.9707 4.63272 6.64942 1.89779 10.6053 2.4799C11.9549 2.6785 13.221 3.25438 14.2576 4.14121L13.3244 5.07441C13.0116 5.38726 13.0117 5.89447 13.3246 6.20725C13.4748 6.35737 13.6784 6.44174 13.8908 6.44178H17.5643C18.0067 6.44178 18.3654 6.08315 18.3654 5.64076V1.96718C18.3653 1.52478 18.0066 1.16623 17.5642 1.1663C17.3518 1.16634 17.1482 1.25071 16.998 1.40083L15.9566 2.44217C11.9854 -1.09774 5.8965 -0.748158 2.35659 3.22299C1.1025 4.62983 0.288671 6.37367 0.0159174 8.23849C-0.0916221 8.89961 0.357122 9.52273 1.01821 9.63027C1.07776 9.63996 1.13791 9.64517 1.19825 9.64593C1.80309 9.63939 2.31078 9.1884 2.38858 8.58856Z" fill="#12BCCA"/>
<path d="M17.9095 9.64594C17.3046 9.65247 16.7969 10.1035 16.7191 10.7033C16.137 14.6591 12.4583 17.3941 8.50247 16.812C7.15282 16.6134 5.88676 16.0375 4.85011 15.1507L5.78331 14.2175C6.09609 13.9046 6.09601 13.3974 5.78312 13.0846C5.63296 12.9345 5.4293 12.8502 5.21696 12.8501H1.54346C1.10106 12.8501 0.742432 13.2087 0.742432 13.6511V17.3247C0.742544 17.7671 1.10125 18.1257 1.54365 18.1256C1.75598 18.1256 1.95965 18.0412 2.10981 17.8911L3.15114 16.8497C7.12136 20.39 13.2098 20.0415 16.7502 16.0713C18.0049 14.6641 18.8191 12.9197 19.0918 11.0542C19.1998 10.3932 18.7515 9.76973 18.0905 9.66174C18.0306 9.65194 17.9701 9.64665 17.9095 9.64594Z" fill="#12BCCA"/>
</svg>
