<svg width="20" height="20" viewBox="0 0 20 20" fill="none" xmlns="http://www.w3.org/2000/svg">
<path d="M8.98038 -1.34381e-05C6.59986 0.00397476 4.31798 0.950778 2.6347 2.63296C0.951416 4.31513 0.00399082 6.59551 0 8.97447C0.00198956 11.3554 0.948292 13.6385 2.63158 15.3235C4.31486 17.0085 6.59786 17.958 8.98038 17.964C11.0934 17.964 13.0404 17.2212 14.5799 15.9919L18.3192 19.7288C18.5086 19.9048 18.759 20.0006 19.0176 19.9961C19.2762 19.9915 19.523 19.887 19.7062 19.7045C19.8893 19.5219 19.9946 19.2756 19.9998 19.0171C20.005 18.7587 19.9098 18.5083 19.7342 18.3185L15.9949 14.5779C17.272 12.9906 17.9682 11.015 17.9683 8.97824C17.9683 4.03096 13.9309 -1.34381e-05 8.98038 -1.34381e-05ZM8.98038 1.99851C12.8517 1.99851 15.9685 5.10941 15.9685 8.97447C15.9685 12.8395 12.8517 15.9693 8.98038 15.9693C5.109 15.9693 1.99606 12.8508 1.99606 8.98201C1.99606 5.11318 5.109 1.99851 8.98038 1.99851Z" fill="white"/>
</svg>
